<svg width="61" height="61" viewBox="0 0 61 61" fill="none" xmlns="http://www.w3.org/2000/svg">
<path d="M2.28421 2.28427C4.01987 0.548609 6.83394 0.548609 8.5696 2.28427L58.8528 52.5674C60.5884 54.3031 60.5884 57.1172 58.8528 58.8528C57.1171 60.5885 54.303 60.5885 52.5674 58.8528L2.28421 8.56967C0.548547 6.834 0.548546 4.01994 2.28421 2.28427Z" fill="#F23005"/>
<path d="M58.8528 2.28427C60.5884 4.01994 60.5884 6.834 58.8528 8.56967L8.5696 58.8528C6.83394 60.5885 4.01987 60.5885 2.28421 58.8528C0.548543 57.1171 0.548543 54.3031 2.28421 52.5674L52.5674 2.28427C54.303 0.54861 57.1171 0.548609 58.8528 2.28427Z" fill="#F23005"/>
</svg>
